<svg width="180" height="78" viewBox="0 0 180 78" fill="none" xmlns="http://www.w3.org/2000/svg">
<path fill-rule="evenodd" clip-rule="evenodd" d="M124.898 6.70521C133.371 6.70521 140.227 13.5783 140.227 22.0468C140.227 30.5153 133.359 37.3884 124.898 37.3884C116.436 37.3884 109.569 30.5153 109.569 22.0468C109.569 13.5783 116.436 6.70521 124.898 6.70521ZM135.445 15.7734C133.839 13.0746 131.214 10.9874 127.918 10.1478C124.634 9.30812 121.326 9.88388 118.629 11.4912C115.933 13.0985 113.847 15.7374 113.008 19.0121C112.169 22.2987 112.745 25.6093 114.351 28.3082C115.957 31.0071 118.594 33.0942 121.865 33.9339C125.149 34.7615 128.457 34.1858 131.154 32.5904C133.851 30.9831 135.936 28.3442 136.775 25.0576C137.614 21.7709 137.027 18.4603 135.433 15.7614L135.445 15.7734ZM128.326 8.57643C132.041 9.52403 135.025 11.887 136.835 14.9458C138.657 18.0045 139.304 21.7589 138.357 25.4774C137.41 29.1958 135.049 32.1826 131.993 34.0058C128.937 35.8171 125.185 36.4768 121.47 35.5292C117.755 34.5816 114.77 32.2186 112.948 29.1598C111.127 26.1011 110.48 22.3467 111.426 18.6282C112.373 14.9098 114.734 11.923 117.791 10.1118C120.847 8.28855 124.598 7.64082 128.314 8.58842L128.326 8.57643ZM124.898 19.9237C126.072 19.9237 127.019 20.8713 127.019 22.0468C127.019 23.2223 126.072 24.1699 124.898 24.1699C123.723 24.1699 122.776 23.2223 122.776 22.0468C122.776 20.8713 123.723 19.9237 124.898 19.9237ZM124.898 16.841C127.774 16.841 130.111 19.18 130.111 22.0468C130.111 24.9136 127.786 27.2646 124.898 27.2646C122.009 27.2646 119.696 24.9256 119.696 22.0468C119.696 19.168 122.033 16.841 124.898 16.841ZM146.1 29.2798L146.939 25.9212L143.391 24.1939C143.571 22.6226 143.559 21.0872 143.343 19.5758L146.867 17.7046L145.92 14.382L141.965 14.6579C141.341 13.2545 140.562 11.923 139.616 10.7115L141.749 7.29296L139.268 4.89396L135.948 7.13703C134.738 6.2494 133.407 5.50571 131.969 4.92995L132.113 0.83965L128.757 0L126.959 3.67047C125.449 3.51454 123.939 3.53853 122.477 3.74244L120.535 0.07197L117.215 1.01958L117.503 5.16985C116.149 5.7696 114.878 6.53728 113.704 7.4369L110.132 5.19384L107.735 7.6768L110.084 11.1554C109.233 12.3309 108.502 13.6023 107.939 14.9818L103.696 14.8258L102.857 18.1724L106.644 20.0317C106.476 21.507 106.5 22.9824 106.68 24.4098L102.929 26.401L103.876 29.7236L108.071 29.4357C108.658 30.7792 109.401 32.0626 110.288 33.2262L108.047 36.8007L110.527 39.1997L113.967 36.8846C115.154 37.7603 116.436 38.504 117.826 39.0917L117.683 43.242L121.027 44.0816L122.824 40.3992C124.346 40.5791 125.857 40.5671 127.331 40.3992L129.248 44.0217L132.568 43.0741L132.293 39.0677C133.695 38.468 135.013 37.6883 136.236 36.7647L139.652 38.9118L142.049 36.4288L139.843 33.1422C140.754 31.9187 141.521 30.5753 142.121 29.1359L146.1 29.2798Z" fill="#F9F9F9"/>
<path fill-rule="evenodd" clip-rule="evenodd" d="M59.6941 47.5532C66.4023 47.5532 71.8296 52.9944 71.8296 59.6986C71.8296 66.4028 66.3928 71.8441 59.6941 71.8441C52.9954 71.8441 47.5586 66.4028 47.5586 59.6986C47.5586 52.9944 52.9954 47.5532 59.6941 47.5532ZM68.0438 54.7322C66.7724 52.5956 64.6944 50.9433 62.0851 50.2786C59.4854 49.6138 56.8666 50.0696 54.7317 51.3421C52.5968 52.6146 50.9459 54.7037 50.2817 57.2961C49.6175 59.898 50.073 62.519 51.3444 64.6556C52.6158 66.7922 54.7033 68.4445 57.2936 69.1092C59.8934 69.7644 62.5121 69.3086 64.647 68.0457C66.7819 66.7732 68.4328 64.6841 69.097 62.0821C69.7612 59.4802 69.2963 56.8593 68.0343 54.7227L68.0438 54.7322ZM62.4078 49.0346C65.3491 49.7848 67.7117 51.6555 69.1444 54.077C70.5867 56.4985 71.099 59.4707 70.3495 62.4145C69.5999 65.3583 67.7307 67.7228 65.3112 69.1662C62.8917 70.6001 59.9218 71.1224 56.9804 70.3722C54.0391 69.622 51.6765 67.7513 50.2343 65.3298C48.792 62.9083 48.2797 59.936 49.0293 56.9923C49.7788 54.0485 51.648 51.684 54.0675 50.2501C56.4871 48.8067 59.4569 48.2939 62.3983 49.0441L62.4078 49.0346ZM59.6941 58.0178C60.624 58.0178 61.3735 58.768 61.3735 59.6986C61.3735 60.6292 60.624 61.3794 59.6941 61.3794C58.7642 61.3794 58.0147 60.6292 58.0147 59.6986C58.0147 58.768 58.7642 58.0178 59.6941 58.0178ZM59.6941 55.5773C61.9713 55.5773 63.8215 57.4291 63.8215 59.6986C63.8215 61.9682 61.9808 63.8294 59.6941 63.8294C57.4074 63.8294 55.5762 61.9777 55.5762 59.6986C55.5762 57.4196 57.4264 55.5773 59.6941 55.5773ZM76.4789 65.4247L77.1431 62.7659L74.3345 61.3984C74.4769 60.1544 74.4674 58.9389 74.2966 57.7424L77.0862 56.2611L76.3366 53.6307L73.2054 53.8491C72.712 52.738 72.0953 51.684 71.3457 50.7249L73.0346 48.0185L71.0706 46.1193L68.4423 47.895C67.484 47.1923 66.4308 46.6036 65.2922 46.1478L65.406 42.9096L62.7493 42.2449L61.3261 45.1507C60.1306 45.0272 58.935 45.0462 57.7775 45.2077L56.2404 42.3019L53.6121 43.0521L53.8398 46.3377C52.7676 46.8125 51.7619 47.4202 50.832 48.1325L48.0045 46.3567L46.1069 48.3224L47.9666 51.0762C47.2929 52.0068 46.7141 53.0134 46.2682 54.1055L42.9093 53.982L42.2451 56.6314L45.2434 58.1033C45.1106 59.2713 45.1296 60.4393 45.2719 61.5694L42.302 63.1457L43.0516 65.7761L46.3725 65.5482C46.8375 66.6118 47.4257 67.6278 48.1279 68.5489L46.3536 71.3788L48.3176 73.278L51.0408 71.4452C51.9801 72.1385 52.9954 72.7272 54.096 73.1925L53.9821 76.4781L56.6294 77.1429L58.0526 74.2276C59.2576 74.37 60.4532 74.3605 61.6202 74.2276L63.1383 77.0954L65.7666 76.3452L65.5484 73.1735C66.6585 72.6987 67.7022 72.0815 68.67 71.3503L71.3742 73.0501L73.2719 71.0844L71.526 68.4825C72.2471 67.5139 72.8544 66.4503 73.3288 65.3108L76.4789 65.4247Z" fill="#F9F9F9"/>
<path fill-rule="evenodd" clip-rule="evenodd" d="M96.4039 58.3406C98.533 54.7792 100.758 51.2946 102.971 47.7551H112.041L102.671 62.9429C100.891 65.8578 99.8681 67.4905 99.6035 67.8521C98.6051 69.2109 97.4865 70.1643 96.2355 70.6903C94.7921 71.3149 92.7954 71.6327 90.2334 71.6327H81.8857V65.4633H90.6303C91.1957 65.4633 91.5685 65.4195 91.749 65.3428C91.9294 65.2551 92.1218 65.0578 92.3143 64.7291L75.3062 47.7661H86.4685L96.416 58.3515L96.4039 58.3406Z" fill="#F9F9F9"/>
<path fill-rule="evenodd" clip-rule="evenodd" d="M0 47.7551H8.19184V65.4605H16.102V47.7551H24.3061V65.4605H32.2163V47.7551H40.4082V71.6327H0V47.7551Z" fill="#F9F9F9"/>
<path fill-rule="evenodd" clip-rule="evenodd" d="M5.99668 27.2407H21.203C21.9337 27.2407 22.4904 27.3722 22.8848 27.6573C23.2792 27.9313 23.4648 28.4576 23.4648 29.2031C23.4648 30.398 22.7108 31.001 21.203 31.001C14.1276 31.001 7.07539 30.99 0 30.99V36.7347H23.4648C26.2369 36.7347 28.232 36.2304 29.4266 35.2327C30.6213 34.2241 31.2245 32.5249 31.2245 30.124C31.2245 27.3393 30.0646 25.4537 27.7332 24.478C28.4639 24.1601 29.0787 23.59 29.5658 22.7349C30.0646 21.8907 30.3082 20.8492 30.3082 19.5994C30.3082 16.7709 29.4846 14.8634 27.8376 13.8548C26.7357 13.186 24.9726 12.8571 22.5484 12.8571H0V18.6456C7.17978 18.6456 14.3364 18.6456 21.5277 18.6456C22.1657 18.6456 22.6412 18.7662 22.9776 19.0184C23.3024 19.2596 23.4648 19.6762 23.4648 20.2462C23.4648 20.8163 23.2908 21.211 22.9544 21.4631C22.618 21.7263 22.1309 21.8468 21.5277 21.8468H5.99668V27.2187V27.2407Z" fill="#F9F9F9"/>
<path fill-rule="evenodd" clip-rule="evenodd" d="M169.029 30.5816V19.0431H154.957C154.957 22.2568 154.801 24.8891 154.501 26.9402C154.2 28.9912 153.816 30.2087 153.347 30.5816H169.029ZM144.683 30.5816C144.683 30.5816 144.791 30.5816 144.839 30.5596L147.038 30.6364L148.805 24.2311L146.69 23.2878C146.75 22.2897 146.798 21.149 146.834 19.8767L148.781 18.9335L146.918 12.9778V12.8571H177.08V30.5706H180V36.7347H145.392L143.265 33.9378V30.5706H144.683V30.5816Z" fill="#F9F9F9"/>
<path fill-rule="evenodd" clip-rule="evenodd" d="M81.2347 18.6566H95.013C95.6514 18.6566 96.1273 18.7772 96.4639 19.0293C96.8005 19.2705 96.9631 19.6871 96.9631 20.2572C96.9631 20.8273 96.7889 21.2219 96.4523 21.4741C96.1157 21.7372 95.6398 21.8578 95.0246 21.8578H81.2463V18.6566H81.2347ZM73.4692 12.8571V36.7347H96.9514C99.7373 36.7347 101.722 36.2304 102.918 35.2327C103.986 34.3338 104.578 32.8976 104.694 30.9133L102.105 31.0777L100.19 24.7301L102.43 23.6009C102.651 23.3597 102.871 23.0637 103.057 22.7349C103.347 22.2415 103.556 21.6824 103.672 21.0575L100.167 19.435L101.594 14.0302C101.513 13.9754 101.42 13.9205 101.328 13.8548C100.225 13.186 98.4488 12.8571 96.0344 12.8571H73.4692ZM81.2347 27.2297H94.688C95.4076 27.2297 95.9764 27.3613 96.3595 27.6463C96.7541 27.9204 96.9398 28.4466 96.9398 29.1921C96.9398 30.3871 96.1853 30.99 94.688 30.99H81.2347V27.2187V27.2297Z" fill="#F9F9F9"/>
<path fill-rule="evenodd" clip-rule="evenodd" d="M51.1057 18.2439H49.9033L45.6772 26.5438H55.3084L51.1174 18.2439H51.1057ZM43.7977 12.8571H57.223L69.796 36.7347H60.6668L58.2503 32.7221H42.7704L40.3538 36.7347H31.2246L43.7977 12.8571Z" fill="#F9F9F9"/>
</svg>
