<svg width="90" height="90" viewBox="0 0 90 90" fill="none" xmlns="http://www.w3.org/2000/svg">
<rect width="90" height="90" rx="45" fill="white"/>
<path d="M60.4 46.1C62.1504 46.1 63.8292 46.7954 65.0669 48.0331C66.3046 49.2708 67 50.9496 67 52.7V54.9C67 63.5724 58.816 72.5 45 72.5C31.184 72.5 23 63.5724 23 54.9V52.7C23 50.9496 23.6954 49.2708 24.9331 48.0331C26.1708 46.7954 27.8496 46.1 29.6 46.1H60.4ZM60.4 50.5H29.6C29.0165 50.5 28.4569 50.7318 28.0444 51.1444C27.6318 51.5569 27.4 52.1165 27.4 52.7V54.9C27.4 61.2272 33.7008 68.1 45 68.1C56.2992 68.1 62.6 61.2272 62.6 54.9V52.7C62.6 52.1165 62.3682 51.5569 61.9556 51.1444C61.5431 50.7318 60.9835 50.5 60.4 50.5ZM45 17.5C48.2091 17.5 51.2868 18.7748 53.556 21.044C55.8252 23.3132 57.1 26.3909 57.1 29.6C57.1 32.8091 55.8252 35.8868 53.556 38.156C51.2868 40.4252 48.2091 41.7 45 41.7C41.7909 41.7 38.7132 40.4252 36.444 38.156C34.1748 35.8868 32.9 32.8091 32.9 29.6C32.9 26.3909 34.1748 23.3132 36.444 21.044C38.7132 18.7748 41.7909 17.5 45 17.5ZM45 21.9C42.9578 21.9 40.9993 22.7112 39.5553 24.1553C38.1112 25.5993 37.3 27.5578 37.3 29.6C37.3 31.6422 38.1112 33.6007 39.5553 35.0447C40.9993 36.4888 42.9578 37.3 45 37.3C47.0422 37.3 49.0007 36.4888 50.4447 35.0447C51.8888 33.6007 52.7 31.6422 52.7 29.6C52.7 27.5578 51.8888 25.5993 50.4447 24.1553C49.0007 22.7112 47.0422 21.9 45 21.9Z" fill="black"/>
</svg>
