<svg width="300" height="129" viewBox="0 0 300 129" fill="none" xmlns="http://www.w3.org/2000/svg">
<path fill-rule="evenodd" clip-rule="evenodd" d="M87.3086 30.1852H85.2787L78.1445 44.893H94.4035L87.3284 30.1852H87.3086ZM74.9715 20.6396H97.6356L118.861 62.9516H103.449L99.3699 55.8411H73.2372L69.1577 62.9516H53.7461L74.9715 20.6396Z" fill="white"/>
<path fill-rule="evenodd" clip-rule="evenodd" d="M134.294 30.9165H158.01C159.109 30.9165 159.928 31.1302 160.508 31.577C161.087 32.0044 161.367 32.7426 161.367 33.7528C161.367 34.763 161.067 35.4624 160.488 35.9092C159.908 36.3755 159.089 36.5892 158.03 36.5892H134.314V30.9165H134.294ZM120.928 20.6396V62.9516H161.347C166.142 62.9516 169.559 62.0579 171.616 60.2901C173.455 58.6971 174.474 56.1521 174.673 52.6359L170.218 52.9273L166.921 41.6791L170.777 39.6781C171.157 39.2507 171.537 38.7261 171.856 38.1433C172.356 37.2691 172.715 36.2784 172.915 35.171L166.881 32.2958L169.339 22.7183C169.199 22.6212 169.039 22.5241 168.879 22.4075C166.981 21.2225 163.924 20.6396 159.768 20.6396H120.928ZM134.294 46.1084H157.451C158.69 46.1084 159.669 46.3415 160.328 46.8466C161.007 47.3323 161.327 48.2648 161.327 49.5858C161.327 51.7034 160.028 52.7718 157.451 52.7718H134.294V46.089V46.1084Z" fill="white"/>
<path fill-rule="evenodd" clip-rule="evenodd" d="M281.523 52.048V31.6015H258.164C258.164 37.2962 257.905 41.9608 257.406 45.5953C256.907 49.2298 256.269 51.3872 255.491 52.048H281.523ZM241.109 52.048C241.109 52.048 241.288 52.048 241.368 52.0092L245.019 52.1452L247.951 40.7947L244.44 39.1232C244.54 37.3545 244.62 35.3332 244.679 33.0786L247.911 31.4071L244.819 20.8534V20.6396H294.888V52.0286H299.735V62.9516H242.286L238.755 57.9954V52.0286H241.109V52.048Z" fill="white"/>
<path fill-rule="evenodd" clip-rule="evenodd" d="M11.1571 46.1278H36.8278C38.0614 46.1278 39.0013 46.3609 39.667 46.866C40.3328 47.3517 40.6461 48.2842 40.6461 49.6053C40.6461 51.7228 39.3733 52.7913 36.8278 52.7913C24.8834 52.7913 12.9781 52.7718 1.03369 52.7718V62.9516H40.6461C45.3259 62.9516 48.6938 62.0579 50.7107 60.2901C52.7275 58.5028 53.7457 55.4916 53.7457 51.2371C53.7457 46.3027 51.7876 42.9612 47.8519 41.2322C49.0855 40.6688 50.1233 39.6586 50.9457 38.1433C51.7876 36.6475 52.1988 34.8019 52.1988 32.5872C52.1988 27.5751 50.8086 24.1948 48.0281 22.4075C46.1679 21.2225 43.1916 20.6396 39.0992 20.6396H1.03369V30.8971C13.1543 30.8971 25.2358 30.8971 37.376 30.8971C38.453 30.8971 39.2558 31.1108 39.8237 31.5576C40.3719 31.985 40.6461 32.7232 40.6461 33.7334C40.6461 34.7436 40.3523 35.443 39.7845 35.8898C39.2166 36.3561 38.3942 36.5698 37.376 36.5698H11.1571V46.089V46.1278Z" fill="white"/>
<path fill-rule="evenodd" clip-rule="evenodd" d="M0 80.4971H13.2006V112.637H25.9473V80.4971H39.1676V112.637H51.9143V80.4971H65.1149V123.841H0V80.4971Z" fill="white"/>
<path fill-rule="evenodd" clip-rule="evenodd" d="M160.525 99.7124C163.999 93.2476 167.631 86.9221 171.242 80.4971H186.043L170.752 108.067C167.847 113.358 166.178 116.322 165.746 116.978C164.117 119.445 162.292 121.176 160.25 122.13C157.895 123.264 154.636 123.841 150.455 123.841H136.833V112.642H151.103C152.026 112.642 152.634 112.562 152.929 112.423C153.223 112.264 153.537 111.906 153.851 111.309L126.096 80.517H144.311L160.545 99.7323L160.525 99.7124Z" fill="white"/>
<path fill-rule="evenodd" clip-rule="evenodd" d="M207.748 10.9883C221.655 10.9883 232.907 22.2518 232.907 36.1298C232.907 50.0077 221.635 61.2712 207.748 61.2712C193.86 61.2712 182.589 50.0077 182.589 36.1298C182.589 22.2518 193.86 10.9883 207.748 10.9883ZM225.058 25.8491C222.422 21.4262 218.114 18.0059 212.705 16.6299C207.315 15.2539 201.886 16.1975 197.46 18.8315C193.034 21.4656 189.611 25.7901 188.234 31.1565C186.857 36.5426 187.801 41.9679 190.437 46.3908C193.073 50.8136 197.401 54.234 202.771 55.61C208.161 56.9663 213.59 56.0228 218.016 53.4084C222.442 50.7743 225.865 46.4497 227.242 41.0637C228.619 35.6776 227.655 30.2523 225.038 25.8294L225.058 25.8491ZM213.374 14.0548C219.472 15.6077 224.37 19.4802 227.34 24.4928C230.33 29.5053 231.392 35.658 229.838 41.7517C228.284 47.8454 224.409 52.74 219.393 55.7279C214.377 58.6961 208.22 59.7773 202.122 58.2243C196.024 56.6714 191.126 52.799 188.136 47.7864C185.146 42.7739 184.084 36.6212 185.638 30.5275C187.192 24.4338 191.067 19.5392 196.083 16.5709C201.099 13.5831 207.256 12.5216 213.354 14.0745L213.374 14.0548ZM207.748 32.6505C209.675 32.6505 211.229 34.2034 211.229 36.1298C211.229 38.0562 209.675 39.6091 207.748 39.6091C205.82 39.6091 204.266 38.0562 204.266 36.1298C204.266 34.2034 205.82 32.6505 207.748 32.6505ZM207.748 27.5986C212.469 27.5986 216.305 31.4317 216.305 36.1298C216.305 40.8278 212.488 44.6806 207.748 44.6806C203.007 44.6806 199.21 40.8475 199.21 36.1298C199.21 31.4121 203.046 27.5986 207.748 27.5986ZM242.546 47.983L243.923 42.479L238.1 39.6484C238.395 37.0733 238.375 34.5572 238.021 32.0804L243.805 29.0139L242.251 23.5689L235.759 24.021C234.736 21.7211 233.458 19.5392 231.904 17.5538L235.405 11.9515L231.333 8.0201L225.884 11.696C223.898 10.2414 221.714 9.02261 219.354 8.07907L219.59 1.376L214.082 0L211.131 6.01507C208.653 5.75953 206.174 5.79885 203.774 6.13302L200.587 0.117943L195.139 1.67085L195.611 8.47221C193.388 9.45507 191.303 10.7131 189.375 12.1874L183.513 8.51153L179.579 12.5805L183.434 18.2811C182.038 20.2075 180.838 22.2912 179.913 24.5517L172.95 24.2962L171.573 29.7805L177.789 32.8274C177.513 35.2452 177.553 37.663 177.848 40.0022L171.691 43.2653L173.245 48.7103L180.13 48.2385C181.094 50.4401 182.313 52.5434 183.769 54.4502L180.09 60.308L184.162 64.2394L189.808 60.4456C191.755 61.8806 193.86 63.0993 196.142 64.0625L195.906 70.8639L201.394 72.2399L204.345 66.2051C206.843 66.5 209.321 66.4803 211.741 66.2051L214.888 72.1416L220.337 70.5887L219.885 64.0232C222.186 63.0403 224.35 61.7626 226.356 60.249L231.963 63.7677L235.897 59.6986L232.277 54.3126C233.772 52.3076 235.031 50.106 236.015 47.7471L242.546 47.983Z" fill="white"/>
<path fill-rule="evenodd" clip-rule="evenodd" d="M93.4513 80.8105C104.127 78.1988 114.901 84.7379 117.496 95.4009C120.111 106.064 113.564 116.805 102.908 119.417C92.2324 122.029 81.4586 115.509 78.8634 104.846C76.2486 94.1834 82.7955 83.4223 93.4513 80.8302V80.8105ZM127.129 102.667V98.1893L122.136 97.0897C121.88 95.067 121.389 93.123 120.661 91.2967L124.515 87.8602L122.293 83.9721L117.398 85.5431C116.179 83.9525 114.783 82.5386 113.23 81.3015L114.881 76.3529L111.008 74.0947L107.508 77.9435C105.719 77.1973 103.812 76.6671 101.827 76.3922L100.765 71.208H96.2824L95.1618 76.3529C93.1957 76.6082 91.3084 77.1188 89.5389 77.8257L85.9608 73.8001L82.068 76.0191L83.6998 81.1444C82.186 82.303 80.8098 83.6579 79.6105 85.17L74.4202 83.4419L72.1592 87.2908L76.1896 90.9629C75.4818 92.691 74.951 94.5172 74.6561 96.422L69.2495 97.5413V102.019L74.5775 103.177C74.8134 105.082 75.2852 106.928 75.9733 108.676L71.8447 112.348L74.0663 116.236L79.2566 114.586C80.4166 116.098 81.7535 117.473 83.228 118.671L81.4979 123.855L85.371 126.113L88.9884 122.127C90.7382 122.873 92.6059 123.423 94.5326 123.718L95.614 129H100.097L101.217 123.855C103.183 123.619 105.09 123.148 106.899 122.461L110.438 126.408L114.331 124.189L112.738 119.221C114.311 118.023 115.766 116.648 117.004 115.116L121.959 116.766L124.22 112.897L120.425 109.441C121.192 107.635 121.742 105.691 122.057 103.688L127.129 102.647V102.667Z" fill="white"/>
<path fill-rule="evenodd" clip-rule="evenodd" d="M109.971 88.2517C106.966 85.1852 102.778 83.2791 98.1555 83.2377C93.512 83.1962 89.3039 85.0402 86.236 88.0445C83.168 91.0487 81.2609 95.234 81.2194 99.8543C81.178 104.495 83.0229 108.701 86.0287 111.768C89.0345 114.834 93.2218 116.74 97.8445 116.802C102.467 116.844 106.696 115 109.764 111.996C112.832 108.991 114.739 104.827 114.801 100.186C114.843 95.5655 112.998 91.3388 109.992 88.2724L109.971 88.2517ZM98.1762 81C103.421 81.0414 108.147 83.2169 111.567 86.6977C114.988 90.1578 117.061 94.9439 116.999 100.186C116.957 105.428 114.781 110.152 111.319 113.57C107.836 116.968 103.068 119.061 97.8238 118.999C92.5792 118.957 87.8321 116.782 84.4325 113.322C81.0328 109.841 78.9392 105.075 79.0013 99.8336C79.0428 94.5917 81.2194 89.847 84.702 86.4491C88.1638 83.0305 92.9523 80.9586 98.1969 81.0207L98.1762 81Z" fill="white"/>
<path fill-rule="evenodd" clip-rule="evenodd" d="M96.9978 96.9349C98.4652 96.5838 99.9521 97.4811 100.324 98.9441C100.676 100.407 99.776 101.89 98.3087 102.26C96.8413 102.611 95.3543 101.714 95.0022 100.251C94.65 98.7881 95.55 97.3056 97.0174 96.9349H96.9978ZM96.0587 93.0726C99.6586 92.1948 103.298 94.3991 104.198 97.9883C105.078 101.578 102.867 105.206 99.2673 106.103C95.6674 106.981 92.0283 104.777 91.1479 101.187C90.2675 97.5982 92.4783 93.9699 96.0783 93.0921L96.0587 93.0726Z" fill="white"/>
</svg>
