<svg width="30" height="30" viewBox="0 0 30 30" fill="none" xmlns="http://www.w3.org/2000/svg">
<path fill-rule="evenodd" clip-rule="evenodd" d="M15 0C6.71591 0 0 6.71591 0 15C0 23.2841 6.71591 30 15 30C23.2841 30 30 23.2841 30 15C30 6.71591 23.2841 0 15 0ZM10.3034 26.3385C11.7924 26.9553 13.3883 27.2727 15 27.2727C18.2549 27.2727 21.3765 25.9797 23.6781 23.6781C25.9797 21.3765 27.2727 18.2549 27.2727 15C27.2727 11.7451 25.9797 8.62345 23.6781 6.32187C21.3765 4.02029 18.2549 2.72727 15 2.72727C13.3883 2.72727 11.7924 3.04472 10.3034 3.66148C8.81444 4.27824 7.4615 5.18224 6.32187 6.32187C5.18224 7.4615 4.27824 8.81444 3.66148 10.3034C3.04472 11.7924 2.72727 13.3883 2.72727 15C2.72727 16.6117 3.04472 18.2076 3.66148 19.6966C4.27824 21.1856 5.18224 22.5385 6.32187 23.6781C7.4615 24.8178 8.81444 25.7218 10.3034 26.3385ZM6.81818 15.0953L12.6041 20.8826L22.2464 11.239L20.3168 9.30941L12.6041 17.0235L8.74636 13.1671L6.81818 15.0953Z" fill="#171717"/>
</svg>
