<svg width="15" height="16" viewBox="0 0 15 16" fill="none" xmlns="http://www.w3.org/2000/svg">
<path d="M9.75 15.5C9.94891 15.5 10.1397 15.421 10.2803 15.2803C10.421 15.1397 10.5 14.9489 10.5 14.75C10.5 14.5511 10.421 14.3603 10.2803 14.2197C10.1397 14.079 9.94891 14 9.75 14H3.5C2.96957 14 2.46086 13.7893 2.08579 13.4142C1.71071 13.0391 1.5 12.5304 1.5 12V4C1.5 3.46957 1.71071 2.96086 2.08579 2.58579C2.46086 2.21071 2.96957 2 3.5 2H9.75C9.94891 2 10.1397 1.92098 10.2803 1.78033C10.421 1.63968 10.5 1.44891 10.5 1.25C10.5 1.05109 10.421 0.860322 10.2803 0.71967C10.1397 0.579018 9.94891 0.5 9.75 0.5H3.5C2.57174 0.5 1.6815 0.868749 1.02513 1.52513C0.368749 2.1815 0 3.07174 0 4V12C0 12.9283 0.368749 13.8185 1.02513 14.4749C1.6815 15.1313 2.57174 15.5 3.5 15.5H9.75ZM10.741 4.199C10.8134 4.13214 10.8982 4.08019 10.9906 4.04612C11.083 4.01205 11.1813 3.99652 11.2797 4.00042C11.3781 4.00432 11.4748 4.02757 11.5643 4.06885C11.6537 4.11013 11.7342 4.16863 11.801 4.241L14.801 7.491C14.9291 7.62957 15.0002 7.81132 15.0002 8C15.0002 8.18868 14.9291 8.37043 14.801 8.509L11.801 11.759C11.6659 11.905 11.4783 11.9913 11.2795 11.999C11.0807 12.0067 10.887 11.9351 10.741 11.8C10.595 11.6649 10.5087 11.4773 10.501 11.2785C10.4933 11.0797 10.5649 10.886 10.7 10.74L12.538 8.749H4.75C4.55109 8.749 4.36032 8.66998 4.21967 8.52933C4.07902 8.38868 4 8.19791 4 7.999C4 7.80009 4.07902 7.60932 4.21967 7.46867C4.36032 7.32802 4.55109 7.249 4.75 7.249H12.537L10.699 5.258C10.6321 5.18565 10.5802 5.10084 10.5461 5.0084C10.512 4.91597 10.4965 4.81773 10.5004 4.7193C10.5043 4.62086 10.5276 4.52416 10.5689 4.43472C10.6101 4.34527 10.6686 4.26583 10.741 4.199Z" fill="black"/>
</svg>
