<svg width="18" height="19" viewBox="0 0 18 19" fill="none" xmlns="http://www.w3.org/2000/svg">
<path d="M2 16.5H3.425L13.2 6.725L11.775 5.3L2 15.075V16.5ZM0 18.5V14.25L13.2 1.075C13.4 0.891667 13.621 0.75 13.863 0.65C14.105 0.55 14.359 0.5 14.625 0.5C14.891 0.5 15.1493 0.55 15.4 0.65C15.6507 0.75 15.8673 0.9 16.05 1.1L17.425 2.5C17.625 2.68333 17.771 2.9 17.863 3.15C17.955 3.4 18.0007 3.65 18 3.9C18 4.16667 17.9543 4.421 17.863 4.663C17.7717 4.905 17.6257 5.12567 17.425 5.325L4.25 18.5H0ZM12.475 6.025L11.775 5.3L13.2 6.725L12.475 6.025Z" fill="black"/>
</svg>
