<svg width="20" height="17" viewBox="0 0 20 17" fill="none" xmlns="http://www.w3.org/2000/svg">
<path d="M2 16.5C1.45 16.5 0.979333 16.3043 0.588 15.913C0.196667 15.5217 0.000666667 15.0507 0 14.5V2.5C0 1.95 0.196 1.47933 0.588 1.088C0.98 0.696666 1.45067 0.500667 2 0.5H18C18.55 0.5 19.021 0.696 19.413 1.088C19.805 1.48 20.0007 1.95067 20 2.5V14.5C20 15.05 19.8043 15.521 19.413 15.913C19.0217 16.305 18.5507 16.5007 18 16.5H2ZM10 9.5L2 4.5V14.5H18V4.5L10 9.5ZM10 7.5L18 2.5H2L10 7.5ZM2 4.5V2.5V14.5V4.5Z" fill="black"/>
</svg>
