<svg width="16" height="20" viewBox="0 0 16 20" fill="none" xmlns="http://www.w3.org/2000/svg">
<path fill-rule="evenodd" clip-rule="evenodd" d="M16 5L11 0H2C0.89543 0 0 0.89543 0 2V18C0 19.1046 0.89543 20 2 20H14C15.1046 20 16 19.1046 16 18V5ZM2 2H9V7H14V18H2V2ZM14 5L11 2V5H14ZM9 9C9 8.44771 8.55229 8 8 8C7.44772 8 7 8.44771 7 9V11H5C4.44772 11 4 11.4477 4 12C4 12.5523 4.44772 13 5 13H7V15C7 15.5523 7.44772 16 8 16C8.55229 16 9 15.5523 9 15V13H11C11.5523 13 12 12.5523 12 12C12 11.4477 11.5523 11 11 11H9V9Z" fill="#151515"/>
</svg>
