<svg width="25" height="25" viewBox="0 0 25 25" fill="none" xmlns="http://www.w3.org/2000/svg">
<g clip-path="url(#clip0_2956_3180)">
<path fill-rule="evenodd" clip-rule="evenodd" d="M22.2526 15.3723C22.2526 15.3723 24.2739 17.3685 24.7739 18.2923C24.7842 18.3052 24.7918 18.3201 24.7964 18.336C24.9997 18.6768 25.0509 18.9456 24.9501 19.1423C24.7814 19.4685 24.2101 19.6323 24.0164 19.646H20.4439C20.1951 19.646 19.6776 19.581 19.0476 19.146C18.5664 18.8098 18.0876 18.256 17.6239 17.7148C16.9314 16.911 16.3326 16.2135 15.7264 16.2135C15.6499 16.2145 15.574 16.2271 15.5014 16.251C15.0426 16.396 14.4601 17.0498 14.4601 18.791C14.4601 19.336 14.0301 19.646 13.7289 19.646H12.0926C11.5351 19.646 8.63261 19.451 6.05886 16.7373C2.90511 13.4148 0.0726126 6.74977 0.0451126 6.69102C-0.131137 6.25977 0.238863 6.02477 0.638863 6.02477H4.24636C4.73011 6.02477 4.88761 6.31727 4.99761 6.57977C5.12511 6.88102 5.59761 8.08602 6.37261 9.43977C7.62761 11.6423 8.39886 12.5385 9.01511 12.5385C9.13087 12.5387 9.24465 12.5085 9.34511 12.451C10.1501 12.0085 10.0001 9.13352 9.96261 8.54102C9.96261 8.42602 9.96136 7.25727 9.54886 6.69227C9.25386 6.28727 8.75136 6.12977 8.44761 6.07227C8.52886 5.95477 8.70136 5.77477 8.92261 5.66852C9.47386 5.39352 10.4701 5.35352 11.4589 5.35352H12.0076C13.0801 5.36852 13.3576 5.43727 13.7476 5.53602C14.5326 5.72352 14.5476 6.23227 14.4789 7.96477C14.4589 8.45977 14.4376 9.01727 14.4376 9.67352C14.4376 9.81352 14.4314 9.96977 14.4314 10.1285C14.4076 11.0173 14.3764 12.0185 15.0039 12.4298C15.085 12.4811 15.1791 12.508 15.2751 12.5073C15.4926 12.5073 16.1439 12.5073 17.9101 9.47602C18.6851 8.13727 19.2851 6.55852 19.3264 6.43977C19.3614 6.37352 19.4664 6.18727 19.5939 6.11227C19.685 6.06507 19.7863 6.04103 19.8889 6.04227H24.1326C24.5951 6.04227 24.9089 6.11227 24.9701 6.28727C25.0726 6.57102 24.9501 7.43727 23.0126 10.0573C22.6864 10.4935 22.4001 10.871 22.1489 11.201C20.3926 13.506 20.3926 13.6223 22.2526 15.3723Z" fill="#171717"/>
</g>
<defs>
<clipPath id="clip0_2956_3180">
<rect width="25" height="25" fill="white"/>
</clipPath>
</defs>
</svg>
