<svg width="476" height="204" viewBox="0 0 476 204" fill="none" xmlns="http://www.w3.org/2000/svg">
<path fill-rule="evenodd" clip-rule="evenodd" d="M118.175 32.3071H154.337L188.2 100.611H163.614L157.108 89.1303H115.399L108.895 100.611H84.3086L118.175 32.3071ZM137.879 47.7109H134.628L123.244 71.4351H149.17L137.879 47.7109Z" fill="white"/>
<path fill-rule="evenodd" clip-rule="evenodd" d="M213.247 73.3466H249.694C251.671 73.3466 253.186 73.7459 254.238 74.5422C255.29 75.3409 255.816 76.8214 255.816 78.9909C255.816 82.434 253.775 84.1556 249.694 84.1556H213.247V73.3466ZM192.201 32.1172V100.611H255.816C263.34 100.611 268.731 99.1771 271.984 96.3062C274.867 93.7446 276.474 89.6173 276.8 83.8975L269.783 84.3845L264.586 66.1634L270.674 62.9394C271.285 62.2284 271.85 61.4054 272.366 60.4655C273.145 59.0556 273.698 57.4461 274.024 55.6466L264.511 50.9957L268.392 35.4848C268.161 35.3095 267.922 35.1439 267.679 34.9856C264.681 33.0717 259.897 32.1172 253.329 32.1172H192.201ZM213.247 48.7628H250.556C252.278 48.7628 253.585 49.1135 254.479 49.8148C255.372 50.516 255.818 51.697 255.818 53.3553C255.818 54.9502 255.355 56.1141 254.43 56.847C253.505 57.58 252.214 57.9477 250.556 57.9477H213.247V48.7628Z" fill="white"/>
<path fill-rule="evenodd" clip-rule="evenodd" d="M383.609 82.9137C383.748 82.9137 383.884 82.8942 384.018 82.8577L389.784 83.0671L394.393 64.6877L388.847 61.98C389 59.1067 389.124 55.8511 389.219 52.2157L394.316 49.5153L389.443 32.4556V32.1147H468.364V82.9113H476.007V100.585H385.428L379.876 92.5514V82.9162H383.609V82.9137ZM447.321 82.9137V49.8148H410.491C410.491 59.0312 410.092 66.5724 409.296 72.4554C408.497 78.3384 407.494 81.8301 406.281 82.9162H447.321V82.9137Z" fill="white"/>
<path fill-rule="evenodd" clip-rule="evenodd" d="M17.1394 73.3466H58.3834C60.3606 73.3466 61.8776 73.7459 62.9271 74.5422C63.979 75.3384 64.505 76.8214 64.505 78.9909C64.505 82.434 62.4645 84.1556 58.3834 84.1556C39.1883 84.1556 20.0662 84.1239 0.890625 84.1239V100.611H64.505C72.0292 100.611 77.4202 99.1771 80.6734 96.3062C83.9241 93.4207 85.5507 88.541 85.5507 81.6378C85.5507 73.6656 82.395 68.2599 76.081 65.4548C78.0582 64.5636 79.7164 62.9029 81.0557 60.4655C82.395 58.0426 83.0646 55.0452 83.0646 51.473C83.0646 43.3596 80.8317 37.8735 76.3683 34.9881C73.3708 33.0741 68.5861 32.1196 62.0189 32.1196H0.890625V48.7361C20.3609 48.7361 39.7678 48.7629 59.2454 48.7629C60.9669 48.7629 62.2745 49.1135 63.1682 49.8148C64.0618 50.5161 64.5074 51.697 64.5074 53.3553C64.5074 54.9502 64.0448 56.1141 63.1195 56.8471C62.1942 57.5776 60.9012 57.9477 59.2454 57.9477H17.1394V73.3466Z" fill="white"/>
<path fill-rule="evenodd" clip-rule="evenodd" d="M385.07 76.7897L387.271 68.0018L377.959 63.4508C378.439 59.3551 378.388 55.2911 377.847 51.3391L387.093 46.4423L384.602 37.7299L374.219 38.4482C372.602 34.7543 370.53 31.2771 368.061 28.0946L373.669 19.1484L367.158 12.8466L358.431 18.7223C355.258 16.4017 351.769 14.4415 348.009 12.9221L348.396 2.22272L339.608 0.019043L334.906 9.63973C330.93 9.2136 326.985 9.28665 323.145 9.81748L318.049 0.199232L309.336 2.6878L310.089 13.5528C306.543 15.1307 303.2 17.1274 300.13 19.499L290.757 13.621L284.455 20.1321L290.604 29.2658C288.366 32.3291 286.462 35.6821 284.969 39.298L273.829 38.8914L271.628 47.6817L281.575 52.5444C281.141 56.4209 281.183 60.2682 281.667 64.0206L271.808 69.2412L274.294 77.9561L285.3 77.1964C286.837 80.7344 288.79 84.0752 291.115 87.1482L285.23 96.5351L291.741 102.837L300.77 96.7592C303.855 99.0627 307.242 101.02 310.9 102.562L310.503 113.461L319.291 115.664L324.002 106.027C327.998 106.511 331.965 106.489 335.827 106.002L340.85 115.487L349.563 112.998L348.834 102.479C352.519 100.901 355.993 98.8727 359.181 96.4426L368.142 102.06L374.443 95.5514L368.636 86.9266C371.025 83.7368 373.041 80.2133 374.606 76.4099L385.07 76.7897ZM329.449 44.1778C336.995 44.1778 343.115 50.2969 343.115 57.843C343.115 65.3891 336.998 71.5082 329.449 71.5082C321.903 71.5082 315.784 65.3915 315.784 57.843C315.784 50.2945 321.903 44.1778 329.449 44.1778ZM329.449 52.2717C332.525 52.2717 335.018 54.7651 335.018 57.8406C335.018 60.916 332.522 63.4094 329.449 63.4094C326.374 63.4094 323.881 60.916 323.881 57.8406C323.881 54.7651 326.374 52.2717 329.449 52.2717ZM338.439 22.516C348.194 24.9997 356.02 31.2017 360.785 39.2201C365.551 47.2386 367.258 57.076 364.774 66.833C362.29 76.5876 356.088 84.4137 348.07 89.179C340.051 93.9443 330.212 95.6512 320.457 93.1675C310.702 90.6838 302.876 84.4819 298.111 76.4634C293.343 68.445 291.639 58.6051 294.122 48.8505C296.606 39.0959 302.806 31.2698 310.827 26.5045C318.847 21.7392 328.685 20.0323 338.439 22.516ZM357.118 41.3994C352.911 34.316 346 28.8421 337.388 26.6482C328.775 24.4567 320.087 25.9615 313.008 30.1716C305.927 34.3793 300.451 41.2874 298.257 49.9025C296.066 58.515 297.57 67.2031 301.781 74.2817C305.988 81.3627 312.899 86.839 321.511 89.0329C330.124 91.2244 338.81 89.7171 345.891 85.5095C352.972 81.3018 358.448 74.3913 360.639 65.7811C362.833 57.1661 361.326 48.478 357.118 41.3994ZM329.449 17.6192C351.664 17.6192 369.673 35.6285 369.673 57.843C369.673 80.0575 351.664 98.0668 329.449 98.0668C307.235 98.0668 289.226 80.0575 289.226 57.843C289.226 35.6285 307.235 17.6192 329.449 17.6192Z" fill="white"/>
<path fill-rule="evenodd" clip-rule="evenodd" d="M143.781 124.287H165.299V176.225H186.067V124.287H207.586V176.225H228.354V124.287H249.874V194.32H143.781V124.287Z" fill="white"/>
<path fill-rule="evenodd" clip-rule="evenodd" d="M404.543 155.333C410.221 144.877 416.189 134.652 422.087 124.287H446.342L421.303 168.857C416.542 177.416 413.803 182.208 413.087 183.253C410.413 187.229 407.416 190.017 404.09 191.583C400.242 193.409 394.895 194.322 388.048 194.322H365.748V176.228H389.124C390.624 176.228 391.62 176.113 392.107 175.884C392.596 175.658 393.103 175.054 393.622 174.075L348.141 124.289H377.974L404.543 155.333Z" fill="white"/>
<path fill-rule="evenodd" clip-rule="evenodd" d="M350.5 160.378L350.541 153.049L342.35 151.264C341.938 147.955 341.118 144.775 339.932 141.77L346.253 136.145L342.623 129.778L334.604 132.339C332.622 129.749 330.328 127.416 327.774 125.392L330.462 117.286L324.136 113.588L318.409 119.882C315.47 118.667 312.353 117.8 309.107 117.33L307.354 108.849L300.027 108.81L298.184 117.272C294.977 117.7 291.894 118.518 288.98 119.675L283.126 113.096L276.758 116.726L279.437 125.117C276.956 127.038 274.713 129.249 272.755 131.701L264.262 128.887L260.563 135.213L267.15 141.208C265.981 144.045 265.129 147.044 264.651 150.173L255.822 151.995L255.783 159.322L264.53 161.228C264.936 164.357 265.708 167.372 266.809 170.226L260.069 176.223L263.697 182.593L272.195 179.88C274.085 182.362 276.262 184.612 278.677 186.582L275.86 195.087L282.186 198.786L288.11 192.275C290.976 193.492 294.015 194.378 297.183 194.885L298.968 203.524L306.295 203.566L308.143 195.087C311.374 194.7 314.486 193.921 317.428 192.793L323.199 199.278L329.566 195.647L326.973 187.524C329.564 185.576 331.904 183.311 333.939 180.794L342.06 183.484L345.759 177.158L339.537 171.499C340.799 168.533 341.705 165.378 342.206 162.088L350.5 160.378ZM295.427 124.586C312.879 120.315 330.491 131 334.762 148.452C339.033 165.903 328.349 183.513 310.897 187.784C293.445 192.055 275.835 181.371 271.564 163.919C267.293 146.467 277.976 128.857 295.427 124.586Z" fill="white"/>
<path fill-rule="evenodd" clip-rule="evenodd" d="M303.432 126.705C311.572 126.78 318.914 130.146 324.2 135.532C329.484 140.916 332.718 148.316 332.642 156.456C332.567 164.596 329.199 171.935 323.815 177.221C318.431 182.508 311.029 185.739 302.889 185.664C294.749 185.591 287.41 182.22 282.123 176.837C276.837 171.453 273.605 164.053 273.681 155.913C273.756 147.77 277.122 140.431 282.508 135.147C287.892 129.861 295.292 126.629 303.432 126.705ZM321.736 137.95C317.07 133.197 310.588 130.223 303.4 130.155C296.212 130.09 289.679 132.943 284.923 137.611C280.17 142.277 277.197 148.759 277.129 155.947C277.063 163.135 279.917 169.668 284.585 174.424C289.25 179.177 295.732 182.15 302.92 182.218C310.109 182.284 316.642 179.43 321.397 174.762C326.15 170.097 329.123 163.615 329.192 156.427C329.257 149.236 326.404 142.703 321.736 137.95Z" fill="white"/>
<path fill-rule="evenodd" clip-rule="evenodd" d="M300.537 145.452C306.466 144.001 312.449 147.631 313.898 153.558C315.349 159.487 311.721 165.47 305.792 166.919C299.862 168.37 293.88 164.742 292.431 158.813C290.977 152.883 294.608 146.901 300.537 145.452ZM302.093 151.81C304.508 151.218 306.948 152.698 307.54 155.114C308.132 157.529 306.651 159.969 304.236 160.561C301.82 161.153 299.38 159.672 298.789 157.257C298.197 154.839 299.675 152.401 302.093 151.81Z" fill="white"/>
</svg>
