<svg width="18" height="18" viewBox="0 0 18 18" fill="none" xmlns="http://www.w3.org/2000/svg">
<path fill-rule="evenodd" clip-rule="evenodd" d="M11.7 1.8C11.2029 1.8 10.8 1.39706 10.8 0.9C10.8 0.402944 11.2029 0 11.7 0H17.1C17.5971 0 18 0.402944 18 0.9V6.3C18 6.79706 17.5971 7.2 17.1 7.2C16.6029 7.2 16.2 6.79706 16.2 6.3V3.07279L11.8864 7.3864C11.5349 7.73787 10.9651 7.73787 10.6136 7.3864C10.2621 7.03492 10.2621 6.46508 10.6136 6.1136L14.9272 1.8H11.7ZM7.3864 10.6136C7.73787 10.9651 7.73787 11.5349 7.3864 11.8864L3.07279 16.2H6.3C6.79706 16.2 7.2 16.6029 7.2 17.1C7.2 17.5971 6.79706 18 6.3 18H0.9C0.402944 18 0 17.5971 0 17.1V11.7C0 11.2029 0.402944 10.8 0.9 10.8C1.39706 10.8 1.8 11.2029 1.8 11.7V14.9272L6.1136 10.6136C6.46508 10.2621 7.03492 10.2621 7.3864 10.6136Z" fill="#969696"/>
</svg>
