<svg width="121" height="121" viewBox="0 0 121 121" fill="none" xmlns="http://www.w3.org/2000/svg">
<path fill-rule="evenodd" clip-rule="evenodd" d="M84.6319 22.2621C89.0203 21.1637 93.4672 23.9707 94.579 28.5472C95.6322 33.1238 92.9406 37.7614 88.5522 38.9208C84.1638 40.0192 79.7168 37.2122 78.6636 32.6357C77.6104 28.0591 80.302 23.4215 84.6904 22.2621H84.6319ZM81.8233 10.18C92.5895 7.43408 103.473 14.3294 106.164 25.5572C108.797 36.7851 102.186 48.1349 91.4193 50.9419C80.653 53.6878 69.7697 46.7925 67.1367 35.5646C64.5036 24.3368 71.1155 12.987 81.8818 10.241L81.8233 10.18Z" fill="#B0B0B0"/>
<path fill-rule="evenodd" clip-rule="evenodd" d="M120.394 -4.0402C111.91 -13.0713 100.09 -18.6852 87.0419 -18.8072C73.9351 -18.9293 62.0571 -13.4984 53.3973 -4.6504C44.7375 4.19761 39.3543 16.5238 39.2373 30.1314C39.1203 43.8001 44.3279 56.1873 52.8121 65.2184C61.2964 74.2494 73.1159 79.8633 86.1642 80.0464C99.2124 80.1684 111.149 74.7376 119.809 65.8896C128.469 57.0416 133.852 44.7764 134.027 31.1078C134.144 17.5001 128.937 5.0519 120.452 -3.97917L120.394 -4.0402ZM87.1004 -25.3975C101.904 -25.2754 115.245 -18.8682 124.899 -8.61676C134.554 1.57371 140.405 15.6695 140.23 31.1078C140.113 46.546 133.969 60.4587 124.197 70.5272C114.367 80.5346 100.909 86.6976 86.1057 86.5146C71.3021 86.3925 57.9027 79.9854 48.3067 69.7949C38.7107 59.5434 32.8009 45.5086 32.9765 30.0704C33.0935 14.6321 39.2373 0.658403 49.0674 -9.349C58.8389 -19.4174 72.3553 -25.5195 87.1589 -25.3364L87.1004 -25.3975Z" fill="#B0B0B0"/>
<path fill-rule="evenodd" clip-rule="evenodd" d="M72.4643 -29.4216C104.236 -37.5374 136.301 -17.2174 144.025 15.9168C151.807 49.0511 132.322 82.4294 100.609 90.5452C68.8365 98.6609 36.7717 78.4021 29.0481 45.2678C21.266 12.1335 40.7506 -21.3058 72.4643 -29.3606V-29.4216ZM172.696 38.4945V24.5818L157.834 21.1646C157.073 14.8795 155.61 8.83841 153.445 3.16348L164.914 -7.51515L158.302 -19.5973L143.732 -14.7156C140.105 -19.6583 135.95 -24.0518 131.328 -27.8961L136.243 -43.2733L124.716 -50.2907L114.301 -38.3306C108.976 -40.6494 103.3 -42.297 97.3905 -43.1513L94.2309 -59.2607H80.89L77.5548 -43.2733C71.7036 -42.48 66.0864 -40.8935 60.8203 -38.6967L50.1711 -51.206L38.5856 -44.3107L43.4421 -28.3842C38.9367 -24.784 34.8408 -20.5736 31.2716 -15.875L15.8243 -21.2448L9.0954 -9.28473L21.0904 2.12614C18.984 7.49596 17.4041 13.1709 16.5264 19.0899L0.435547 22.5681L0.435547 36.4808L16.2924 40.0811C16.9946 46.0001 18.3989 51.736 20.4468 57.1669L8.15918 68.5777L14.7711 80.6598L30.2183 75.5341C33.6706 80.2327 37.6494 84.5042 42.0378 88.2264L36.8888 104.336L48.4157 111.353L59.182 98.9661C64.3896 101.285 69.9482 102.993 75.6824 103.909L78.9006 120.323H92.2415L95.5767 104.336C101.428 103.604 107.104 102.139 112.487 100.003L123.019 112.269L134.604 105.373L129.865 89.935C134.546 86.2127 138.876 81.9413 142.562 77.1817L157.307 82.3074L164.036 70.2863L152.743 59.5467C155.025 53.9328 156.664 47.8917 157.6 41.6676L172.696 38.4335V38.4945Z" fill="#B0B0B0"/>
</svg>
