<svg width="173" height="110" viewBox="0 0 173 110" fill="none" xmlns="http://www.w3.org/2000/svg">
<path fill-rule="evenodd" clip-rule="evenodd" d="M84.1963 82.4164C88.5848 81.318 93.0317 84.125 94.1434 88.7015C95.1966 93.2781 92.5051 97.9157 88.1166 99.0751C83.7282 100.173 79.2813 97.3665 78.2281 92.7899C77.1748 88.2134 79.8664 83.5758 84.2548 82.4164H84.1963ZM81.3877 70.3343C92.154 67.5884 103.037 74.4837 105.729 85.7115C108.362 96.9394 101.75 108.289 90.9838 111.096C80.2175 113.842 69.3342 106.947 66.7011 95.7189C64.0681 84.4911 70.68 73.1413 81.4462 70.3953L81.3877 70.3343Z" fill="#B0B0B0"/>
<path fill-rule="evenodd" clip-rule="evenodd" d="M119.958 56.1141C111.474 47.083 99.6546 41.4691 86.6063 41.3471C73.4996 41.225 61.6216 46.6559 52.9617 55.5039C44.3019 64.3519 38.9188 76.6781 38.8017 90.2857C38.6847 103.954 43.8923 116.342 52.3766 125.373C60.8609 134.404 72.6804 140.018 85.7286 140.201C98.7769 140.323 110.713 134.892 119.373 126.044C128.033 117.196 133.416 104.931 133.592 91.2621C133.709 77.6544 128.501 65.2062 120.017 56.1751L119.958 56.1141ZM86.6648 34.7568C101.468 34.8789 114.809 41.2861 124.464 51.5375C134.118 61.728 139.97 75.8238 139.794 91.2621C139.677 106.7 133.533 120.613 123.762 130.681C113.932 140.689 100.474 146.852 85.6701 146.669C70.8665 146.547 57.4672 140.14 47.8711 129.949C38.2751 119.698 32.3654 105.663 32.5409 90.2247C32.6579 74.7864 38.8017 60.8127 48.6318 50.8053C58.4034 40.7369 71.9197 34.6348 86.7233 34.8179L86.6648 34.7568Z" fill="#B0B0B0"/>
<path fill-rule="evenodd" clip-rule="evenodd" d="M72.0287 30.7327C103.801 22.6169 135.866 42.9369 143.589 76.0711C151.371 109.205 131.887 142.584 100.173 150.699C68.401 158.815 36.3362 138.556 28.6126 105.422C20.8304 72.2878 40.315 38.8485 72.0287 30.7937V30.7327ZM172.26 98.6488V84.7361L157.398 81.3189C156.638 75.0338 155.175 68.9927 153.01 63.3178L164.478 52.6391L157.866 40.557L143.297 45.4387C139.669 40.496 135.515 36.1025 130.892 32.2582L135.807 16.881L124.28 9.86361L113.865 21.8237C108.54 19.5049 102.865 17.8573 96.955 17.003L93.7953 0.893555L80.4545 0.893555L77.1193 16.881C71.2681 17.6743 65.6509 19.2608 60.3848 21.4576L49.7355 8.94829L38.1501 15.8436L43.0066 31.7701C38.5011 35.3703 34.4053 39.5807 30.836 44.2793L15.3888 38.9095L8.65985 50.8696L20.6549 62.2804C18.5484 67.6503 16.9686 73.3252 16.0909 79.2442L0 82.7224L0 96.6351L15.8569 100.235C16.559 106.154 17.9633 111.89 20.0112 117.321L7.72363 128.732L14.3355 140.814L29.7828 135.688C33.235 140.387 37.2139 144.658 41.6023 148.381L36.4532 164.49L47.9801 171.508L58.7464 159.12C63.954 161.439 69.5127 163.148 75.2469 164.063L78.4651 180.478H91.8059L95.1411 164.49C100.992 163.758 106.668 162.293 112.051 160.158L122.583 172.423L134.169 165.528L129.429 150.089C134.11 146.367 138.44 142.096 142.127 137.336L156.872 142.462L163.601 130.441L152.308 119.701C154.59 114.087 156.228 108.046 157.164 101.822L172.26 98.5878V98.6488Z" fill="#B0B0B0"/>
</svg>
