<svg width="20" height="20" viewBox="0 0 20 20" fill="none" xmlns="http://www.w3.org/2000/svg">
<path d="M12.75 17.5C12.9489 17.5 13.1397 17.421 13.2803 17.2803C13.421 17.1397 13.5 16.9489 13.5 16.75C13.5 16.5511 13.421 16.3603 13.2803 16.2197C13.1397 16.079 12.9489 16 12.75 16H6.5C5.96957 16 5.46086 15.7893 5.08579 15.4142C4.71071 15.0391 4.5 14.5304 4.5 14V6C4.5 5.46957 4.71071 4.96086 5.08579 4.58579C5.46086 4.21071 5.96957 4 6.5 4H12.75C12.9489 4 13.1397 3.92098 13.2803 3.78033C13.421 3.63968 13.5 3.44891 13.5 3.25C13.5 3.05109 13.421 2.86032 13.2803 2.71967C13.1397 2.57902 12.9489 2.5 12.75 2.5H6.5C5.57174 2.5 4.6815 2.86875 4.02513 3.52513C3.36875 4.1815 3 5.07174 3 6V14C3 14.9283 3.36875 15.8185 4.02513 16.4749C4.6815 17.1313 5.57174 17.5 6.5 17.5H12.75ZM13.741 6.199C13.8134 6.13214 13.8982 6.08019 13.9906 6.04612C14.083 6.01205 14.1813 5.99652 14.2797 6.00042C14.3781 6.00432 14.4748 6.02757 14.5643 6.06885C14.6537 6.11013 14.7342 6.16863 14.801 6.241L17.801 9.491C17.9291 9.62957 18.0002 9.81132 18.0002 10C18.0002 10.1887 17.9291 10.3704 17.801 10.509L14.801 13.759C14.6659 13.905 14.4783 13.9913 14.2795 13.999C14.0807 14.0067 13.887 13.9351 13.741 13.8C13.595 13.6649 13.5087 13.4773 13.501 13.2785C13.4933 13.0797 13.5649 12.886 13.7 12.74L15.538 10.749H7.75C7.55109 10.749 7.36032 10.67 7.21967 10.5293C7.07902 10.3887 7 10.1979 7 9.999C7 9.80009 7.07902 9.60932 7.21967 9.46867C7.36032 9.32802 7.55109 9.249 7.75 9.249H15.537L13.699 7.258C13.6321 7.18565 13.5802 7.10084 13.5461 7.0084C13.512 6.91597 13.4965 6.81773 13.5004 6.7193C13.5043 6.62086 13.5276 6.52416 13.5689 6.43472C13.6101 6.34527 13.6686 6.26583 13.741 6.199Z" fill="#F9F9F9"/>
</svg>
