<svg width="13" height="13" viewBox="0 0 13 13" fill="none" xmlns="http://www.w3.org/2000/svg">
<path d="M6.5 0C2.912 0 0 2.912 0 6.5C0 10.088 2.912 13 6.5 13C10.088 13 13 10.088 13 6.5C13 2.912 10.088 0 6.5 0ZM9.516 4.42C9.4185 5.447 8.996 7.943 8.7815 9.0935C8.6905 9.581 8.5085 9.7435 8.3395 9.763C7.9625 9.7955 7.6765 9.516 7.3125 9.2755C6.7405 8.8985 6.4155 8.6645 5.863 8.3005C5.2195 7.878 5.6355 7.644 6.006 7.267C6.1035 7.1695 7.7675 5.655 7.8 5.5185C7.80451 5.49783 7.80391 5.47636 7.79825 5.45597C7.79259 5.43558 7.78203 5.41688 7.7675 5.4015C7.7285 5.369 7.6765 5.382 7.631 5.3885C7.5725 5.4015 6.6625 6.006 4.888 7.202C4.628 7.3775 4.394 7.4685 4.186 7.462C3.952 7.4555 3.51 7.332 3.1785 7.2215C2.769 7.0915 2.4505 7.02 2.4765 6.7925C2.4895 6.6755 2.652 6.5585 2.9575 6.435C4.8555 5.6095 6.1165 5.0635 6.747 4.8035C8.554 4.0495 8.9245 3.9195 9.1715 3.9195C9.2235 3.9195 9.347 3.9325 9.425 3.9975C9.49 4.0495 9.5095 4.121 9.516 4.173C9.5095 4.212 9.5225 4.329 9.516 4.42Z" fill="#F9F9F9"/>
</svg>
