<svg width="11" height="11" viewBox="0 0 11 11" fill="none" xmlns="http://www.w3.org/2000/svg">
<path d="M2.21222 4.76056C3.09222 6.49 4.51 7.90167 6.23944 8.78778L7.58389 7.44333C7.74889 7.27833 7.99333 7.22333 8.20722 7.29667C8.89167 7.52278 9.63111 7.645 10.3889 7.645C10.725 7.645 11 7.92 11 8.25611V10.3889C11 10.725 10.725 11 10.3889 11C4.65055 11 0 6.34944 0 0.611111C0 0.275 0.275 0 0.611111 0H2.75C3.08611 0 3.36111 0.275 3.36111 0.611111C3.36111 1.375 3.48333 2.10833 3.70944 2.79278C3.77667 3.00667 3.72778 3.245 3.55667 3.41611L2.21222 4.76056Z" fill="#F9F9F9"/>
</svg>
