<svg width="13" height="11" viewBox="0 0 13 11" fill="none" xmlns="http://www.w3.org/2000/svg">
<path d="M1.5 10.5C1.15625 10.5 0.862084 10.3777 0.6175 10.1331C0.372917 9.88854 0.250417 9.59417 0.25 9.25V1.75C0.25 1.40625 0.3725 1.11208 0.6175 0.8675C0.8625 0.622917 1.15667 0.500417 1.5 0.5H11.5C11.8438 0.5 12.1381 0.6225 12.3831 0.8675C12.6281 1.1125 12.7504 1.40667 12.75 1.75V9.25C12.75 9.59375 12.6277 9.88812 12.3831 10.1331C12.1385 10.3781 11.8442 10.5004 11.5 10.5H1.5ZM6.5 6.125L11.5 3V1.75L6.5 4.875L1.5 1.75V3L6.5 6.125Z" fill="#F9F9F9"/>
</svg>
