<svg width="13" height="13" viewBox="0 0 13 13" fill="none" xmlns="http://www.w3.org/2000/svg">
<path fill-rule="evenodd" clip-rule="evenodd" d="M0 6.5C0 2.91005 2.91005 0 6.5 0C10.0899 0 13 2.91005 13 6.5C13 10.0899 10.0899 13 6.5 13C2.91005 13 0 10.0899 0 6.5ZM6.5 3.9C6.5 3.72761 6.43152 3.56228 6.30962 3.44038C6.18772 3.31848 6.02239 3.25 5.85 3.25C5.67761 3.25 5.51228 3.31848 5.39038 3.44038C5.26848 3.56228 5.2 3.72761 5.2 3.9V7.15C5.2 7.32239 5.26848 7.48772 5.39038 7.60962C5.51228 7.73152 5.67761 7.8 5.85 7.8H9.1C9.27239 7.8 9.43772 7.73152 9.55962 7.60962C9.68152 7.48772 9.75 7.32239 9.75 7.15C9.75 6.97761 9.68152 6.81228 9.55962 6.69038C9.43772 6.56848 9.27239 6.5 9.1 6.5H6.5V3.9Z" fill="#F9F9F9"/>
</svg>
