<svg width="18" height="18" viewBox="0 0 18 18" fill="none" xmlns="http://www.w3.org/2000/svg">
<path d="M18 16.4423L12.6312 11.0726C13.4964 9.88361 13.9618 8.45066 13.9604 6.98019C13.9604 3.13139 10.829 0 6.98019 0C3.13139 0 0 3.13139 0 6.98019C0 10.829 3.13139 13.9604 6.98019 13.9604C8.45066 13.9618 9.88361 13.4964 11.0726 12.6312L16.4423 18L18 16.4423ZM6.98019 11.7558C6.03554 11.7559 5.11208 11.4759 4.32659 10.9511C3.54111 10.4263 2.92888 9.68041 2.56734 8.80768C2.2058 7.93495 2.11118 6.97461 2.29545 6.0481C2.47972 5.1216 2.93461 4.27055 3.60258 3.60258C4.27055 2.93461 5.1216 2.47972 6.0481 2.29545C6.97461 2.11118 7.93495 2.2058 8.80768 2.56734C9.68041 2.92888 10.4263 3.54111 10.9511 4.32659C11.4759 5.11208 11.7559 6.03554 11.7558 6.98019C11.7543 8.24631 11.2507 9.46014 10.3554 10.3554C9.46014 11.2507 8.24631 11.7543 6.98019 11.7558Z" fill="#404040"/>
</svg>
