<svg width="175" height="75" viewBox="0 0 175 75" fill="none" xmlns="http://www.w3.org/2000/svg">
<path fill-rule="evenodd" clip-rule="evenodd" d="M50.9751 17.5497H49.7899L45.6246 26.1008H55.1174L50.9866 17.5497H50.9751ZM43.7721 12H57.0044L69.3969 36.6H60.3988L58.017 32.466H42.7595L40.3777 36.6H31.3796L43.7721 12Z" fill="#F9F9F9"/>
<path fill-rule="evenodd" clip-rule="evenodd" d="M78.4075 17.9749H92.2541C92.8956 17.9749 93.3739 18.0992 93.7122 18.3589C94.0505 18.6074 94.2138 19.0366 94.2138 19.624C94.2138 20.2113 94.0388 20.6179 93.7005 20.8777C93.3622 21.1488 92.884 21.273 92.2657 21.273H78.4192V17.9749H78.4075ZM70.6035 12V36.6H94.2021C97.0018 36.6 98.9965 36.0804 100.198 35.0526C101.271 34.1264 101.866 32.6468 101.983 30.6025L99.3815 30.7719L97.4567 24.2322L99.7081 23.0689C99.9297 22.8204 100.151 22.5154 100.338 22.1766C100.63 21.6683 100.84 21.0923 100.956 20.4485L97.4334 18.7769L98.8682 13.2085C98.7866 13.1521 98.6932 13.0956 98.5999 13.0278C97.4917 12.3388 95.707 12 93.2806 12H70.6035ZM78.4075 26.8074H91.9274C92.6507 26.8074 93.2223 26.943 93.6072 27.2366C94.0038 27.519 94.1905 28.0611 94.1905 28.8292C94.1905 30.0603 93.4322 30.6815 91.9274 30.6815H78.4075V26.7961V26.8074Z" fill="#F9F9F9"/>
<path fill-rule="evenodd" clip-rule="evenodd" d="M164.367 30.2607V18.3732H150.729C150.729 21.6841 150.577 24.396 150.286 26.5091C149.995 28.6222 149.622 29.8765 149.168 30.2607H164.367ZM140.771 30.2607C140.771 30.2607 140.876 30.2607 140.922 30.2381L143.054 30.3172L144.766 23.718L142.716 22.7462C142.774 21.7179 142.821 20.5428 142.856 19.232L144.742 18.2602L142.937 12.1243V12H172.17V30.2494H175V36.6H141.458L139.397 33.7185V30.2494H140.771V30.2607Z" fill="#F9F9F9"/>
<path fill-rule="evenodd" clip-rule="evenodd" d="M6.51403 26.8187H21.5018C22.2221 26.8187 22.7708 26.9543 23.1595 27.2479C23.5482 27.5303 23.7311 28.0724 23.7311 28.8405C23.7311 30.0716 22.988 30.6928 21.5018 30.6928C14.5281 30.6928 7.57724 30.6815 0.603516 30.6815V36.6H23.7311C26.4635 36.6 28.4298 36.0804 29.6074 35.0526C30.7849 34.0135 31.3794 32.2628 31.3794 29.7892C31.3794 26.9204 30.2361 24.9777 27.9382 23.9724C28.6585 23.6449 29.2644 23.0576 29.7445 22.1766C30.2361 21.3069 30.4762 20.2339 30.4762 18.9463C30.4762 16.0322 29.6645 14.0669 28.0411 13.0278C26.955 12.3388 25.2173 12 22.828 12H0.603516V17.9636C7.68013 17.9636 14.7339 17.9636 21.8219 17.9636C22.4507 17.9636 22.9194 18.0879 23.251 18.3477C23.5711 18.5961 23.7311 19.0253 23.7311 19.6127C23.7311 20.2 23.5596 20.6066 23.2281 20.8664C22.8966 21.1375 22.4164 21.2617 21.8219 21.2617H6.51403V26.7961V26.8187Z" fill="#F9F9F9"/>
<path fill-rule="evenodd" clip-rule="evenodd" d="M0 46.8008H7.70713V65.4867H15.1493V46.8008H22.8679V65.4867H30.3101V46.8008H38.0172V72.0008H0V46.8008Z" fill="#F9F9F9"/>
<path fill-rule="evenodd" clip-rule="evenodd" d="M93.7223 57.9725C95.7508 54.2139 97.871 50.5363 99.9797 46.8008H108.621L99.6932 62.8298C97.9971 65.906 97.0229 67.6292 96.7708 68.0109C95.8196 69.4449 94.7538 70.4511 93.5619 71.0062C92.1867 71.6654 90.2842 72.0008 87.8432 72.0008H79.8897V65.4897H88.2214C88.76 65.4897 89.1153 65.4434 89.2872 65.3625C89.4591 65.27 89.6424 65.0618 89.8258 64.7149L73.6208 46.8123H84.2561L93.7338 57.9841L93.7223 57.9725Z" fill="#F9F9F9"/>
<path fill-rule="evenodd" clip-rule="evenodd" d="M121.293 6.38857C129.413 6.38857 135.982 12.9371 135.982 21.0057C135.982 29.0743 129.401 35.6228 121.293 35.6228C113.185 35.6228 106.604 29.0743 106.604 21.0057C106.604 12.9371 113.185 6.38857 121.293 6.38857ZM131.4 15.0286C129.861 12.4571 127.346 10.4686 124.187 9.66856C121.04 8.86856 117.871 9.41713 115.286 10.9486C112.702 12.48 110.704 14.9943 109.9 18.1143C109.096 21.2457 109.647 24.4 111.186 26.9714C112.725 29.5428 115.252 31.5314 118.387 32.3314C121.534 33.12 124.704 32.5714 127.288 31.0514C129.872 29.52 131.871 27.0057 132.675 23.8743C133.478 20.7428 132.916 17.5886 131.388 15.0171L131.4 15.0286ZM124.578 8.17142C128.138 9.07428 130.998 11.3257 132.732 14.24C134.478 17.1543 135.098 20.7314 134.191 24.2743C133.283 27.8171 131.021 30.6628 128.092 32.4C125.163 34.1257 121.569 34.7543 118.008 33.8514C114.448 32.9485 111.588 30.6971 109.843 27.7828C108.097 24.8685 107.477 21.2914 108.384 17.7486C109.291 14.2057 111.554 11.36 114.483 9.63428C117.411 7.89714 121.006 7.27999 124.566 8.18285L124.578 8.17142ZM121.293 18.9828C122.419 18.9828 123.326 19.8857 123.326 21.0057C123.326 22.1257 122.419 23.0286 121.293 23.0286C120.168 23.0286 119.26 22.1257 119.26 21.0057C119.26 19.8857 120.168 18.9828 121.293 18.9828ZM121.293 16.0457C124.049 16.0457 126.289 18.2743 126.289 21.0057C126.289 23.7371 124.061 25.9771 121.293 25.9771C118.525 25.9771 116.309 23.7485 116.309 21.0057C116.309 18.2628 118.548 16.0457 121.293 16.0457ZM141.61 27.8971L142.414 24.6971L139.014 23.0514C139.186 21.5543 139.175 20.0914 138.968 18.6514L142.345 16.8686L141.438 13.7028L137.647 13.9657C137.05 12.6286 136.304 11.36 135.396 10.2057L137.441 6.94857L135.063 4.66285L131.882 6.79999C130.722 5.95428 129.447 5.24571 128.069 4.69714L128.207 0.799999L124.991 0L123.268 3.49714C121.821 3.34857 120.374 3.37143 118.973 3.56571L117.113 0.0685714L113.931 0.971428L114.207 4.92571C112.909 5.49714 111.692 6.22857 110.566 7.08571L107.144 4.94857L104.847 7.31428L107.098 10.6286C106.282 11.7486 105.582 12.96 105.042 14.2743L100.976 14.1257L100.172 17.3143L103.802 19.0857C103.641 20.4914 103.664 21.8971 103.836 23.2571L100.241 25.1543L101.149 28.32L105.168 28.0457C105.731 29.3257 106.443 30.5485 107.293 31.6571L105.145 35.0628L107.523 37.3485L110.819 35.1428C111.956 35.9771 113.185 36.6857 114.517 37.2457L114.379 41.2L117.583 42L119.306 38.4914C120.765 38.6628 122.212 38.6514 123.624 38.4914L125.462 41.9428L128.643 41.04L128.379 37.2228C129.723 36.6514 130.986 35.9085 132.158 35.0285L135.431 37.0743L137.728 34.7085L135.615 31.5771C136.488 30.4114 137.223 29.1314 137.797 27.76L141.61 27.8971Z" fill="#F9F9F9"/>
<path fill-rule="evenodd" clip-rule="evenodd" d="M54.5613 46.9823C60.7942 45.4638 67.0845 49.2657 68.5997 55.465C70.1264 61.6644 66.304 67.9095 60.0826 69.4279C53.8497 70.9464 47.5594 67.156 46.0442 60.9566C44.5175 54.7572 48.3399 48.5007 54.5613 46.9937V46.9823ZM74.2242 59.6893V57.0862L71.3087 56.4469C71.1594 55.271 70.8725 54.1407 70.4478 53.0789L72.6976 51.081L71.4005 48.8204L68.5423 49.7338C67.8306 48.809 67.0157 47.987 66.1089 47.2677L67.0731 44.3906L64.8118 43.0777L62.7686 45.3154C61.724 44.8816 60.6106 44.5733 59.4512 44.4135L58.8314 41.3994H56.2143L55.56 44.3906C54.4121 44.5391 53.3102 44.8359 52.2771 45.2469L50.188 42.9064L47.9152 44.1966L48.8679 47.1764C47.9841 47.85 47.1806 48.6377 46.4804 49.5168L43.45 48.5121L42.13 50.7499L44.4831 52.8848C44.0699 53.8895 43.76 54.9513 43.5878 56.0587L40.4312 56.7095V59.3125L43.5419 59.9861C43.6796 61.0936 43.9551 62.1668 44.3568 63.1829L41.9463 65.3178L43.2434 67.5784L46.2738 66.6194C46.951 67.4985 47.7316 68.2976 48.5925 68.9941L47.5823 72.0081L49.8436 73.3211L51.9557 71.0035C52.9773 71.4373 54.0678 71.757 55.1927 71.9282L55.824 74.9994H58.4411L59.0954 72.0081C60.2433 71.8711 61.3567 71.5971 62.4127 71.1975L64.4789 73.4923L66.7517 72.2022L65.8219 69.3138C66.7402 68.6173 67.5896 67.8181 68.3127 66.9276L71.2054 67.8866L72.5254 65.6375L70.31 63.6281C70.7577 62.5778 71.0791 61.4475 71.2628 60.283L74.2242 59.6779V59.6893Z" fill="#F9F9F9"/>
<path fill-rule="evenodd" clip-rule="evenodd" d="M64.2066 51.3098C62.4517 49.527 60.0069 48.4188 57.3079 48.3947C54.5969 48.3706 52.14 49.4427 50.3487 51.1894C48.5575 52.936 47.444 55.3693 47.4198 58.0556C47.3956 60.7539 48.4728 63.1992 50.2277 64.982C51.9826 66.7648 54.4274 67.873 57.1264 67.9091C59.8253 67.9332 62.2943 66.8611 64.0855 65.1145C65.8768 63.3678 66.9902 60.9466 67.0266 58.2483C67.0508 55.562 65.9736 53.1047 64.2187 51.3219L64.2066 51.3098ZM57.32 47.0938C60.3821 47.1178 63.1415 48.3827 65.1385 50.4064C67.1355 52.4181 68.3458 55.2007 68.3095 58.2483C68.2853 61.2959 67.0145 64.0424 64.9933 66.03C62.96 68.0055 60.1763 69.2221 57.1143 69.186C54.0522 69.1619 51.2807 67.8971 49.2958 65.8854C47.3109 63.8617 46.0885 61.0911 46.1248 58.0435C46.149 54.9959 47.4198 52.2374 49.4531 50.2618C51.4743 48.2743 54.2701 47.0697 57.3321 47.1058L57.32 47.0938Z" fill="#F9F9F9"/>
<path fill-rule="evenodd" clip-rule="evenodd" d="M56.6321 56.3576C57.4888 56.1535 58.3569 56.6751 58.574 57.5257C58.7796 58.3763 58.2541 59.2383 57.3974 59.4537C56.5407 59.6579 55.6726 59.1362 55.4669 58.2856C55.2613 57.435 55.7868 56.5731 56.6435 56.3576H56.6321ZM56.0838 54.112C58.1856 53.6017 60.3103 54.8832 60.8357 56.97C61.3498 59.0568 60.059 61.1663 57.9571 61.6879C55.8553 62.1983 53.7306 60.9167 53.2166 58.83C52.7026 56.7432 53.9934 54.6337 56.0952 54.1234L56.0838 54.112Z" fill="#F9F9F9"/>
</svg>
